<svg xmlns="http://www.w3.org/2000/svg" width="712" height="583" fill="none" viewBox="0 0 712 583">
  <g clip-path="url(#a)">
    <path stroke="url(#b)" stroke-miterlimit="10" stroke-width="5" d="M71.762 193.244s-28.344-72.261 38.241-85.598c66.585-13.336 217.092 52.022 278.318-42.684 61.226-94.706 157.141-65.388 166.462-6.66 9.322 58.727-30.62 113.379 47.943 110.703 78.563-2.677 162.439 128.053 53.271 177.413-109.169 49.36-62.593 141.42-62.593 141.42s54.653 185.412-201.09 28.01c-255.744-157.402-231.712-1.323-336.918-54.743-105.206-53.42-16.972-136.66-16.972-136.66s43.995-52.493 33.338-131.201Z"/>
    <path stroke="url(#c)" stroke-miterlimit="10" stroke-width="3" d="M165.794 225.74s-18.976-48.342 25.581-57.283c44.557-8.941 145.254 34.823 186.243-28.558 40.989-63.38 105.161-43.733 111.4-4.455 6.239 39.278-20.495 75.865 32.078 74.086 52.573-1.779 108.728 85.688 35.645 118.716-73.082 33.029-41.885 94.615-41.885 94.615s36.542 124.085-134.566 18.749c-171.108-105.335-155.061-.897-225.457-36.601-70.395-35.705-11.34-91.406-11.34-91.406s29.436-35.188 22.301-87.863Z"/>
    <path stroke="url(#d)" stroke-miterlimit="10" stroke-width="2" d="M234.414 249.462s-12.145-30.9 16.365-36.617c28.51-5.718 92.848 22.262 119.051-18.248 26.203-40.51 67.223-27.965 71.2-2.859 3.978 25.106-13.101 48.493 20.51 47.353 33.611-1.141 69.5 54.743 22.772 75.895-46.728 21.153-26.765 60.476-26.765 60.476s23.304 79.317-86.001 11.983c-109.305-67.334-99.119-.563-144.131-23.387-45.012-22.825-7.257-58.454-7.257-58.454a76.632 76.632 0 0 0 14.256-56.142Z"/>
    <path stroke="url(#e)" stroke-miterlimit="10" d="M271.972 261.551s-8.775-20.346 11.902-24.072c20.677-3.725 67.344 14.735 86.381-11.891 19.038-26.627 48.793-18.339 51.616-1.81 2.824 16.529-9.549 31.934 14.848 31.173 24.396-.76 50.371 36.1 16.456 49.953-33.915 13.854-19.386 39.765-19.386 39.765s16.881 52.204-62.41 7.801c-79.292-44.403-71.914-.471-104.538-15.526-32.625-15.054-5.223-38.472-5.223-38.472a47.338 47.338 0 0 0 10.354-36.921Z"/>
    <path stroke="url(#f)" stroke-miterlimit="10" d="M311.656 273.138s-5.132-11.891 6.938-14.066c12.069-2.174 39.334 8.607 50.462-6.949s28.495-10.645 30.165-1.049c1.67 9.595-5.571 18.628 8.669 18.247 14.24-.38 29.421 21.092 9.609 29.166-19.811 8.075-11.37 23.236-11.37 23.236s9.852 30.413-36.435 4.562c-46.288-25.851-41.992-.274-61.059-9.124-19.068-8.85-3.037-22.475-3.037-22.475a27.606 27.606 0 0 0 5.308-10.131 27.65 27.65 0 0 0 .75-11.417Z"/>
    <rect width="154" height="55" x="283" y="309" fill="#455CE9" rx="27.5"/>
    <path fill="#fff" d="M349.516 344h-2.901l-4.922-14.092h2.784l3.544 11.153h.167l3.515-11.153h2.686L349.516 344Zm7.08 0v-10.684h2.412V344h-2.412Zm1.201-12.422c-.436 0-.794-.124-1.074-.371a1.248 1.248 0 0 1-.42-.967c0-.39.14-.709.42-.957.28-.254.638-.381 1.074-.381.443 0 .801.127 1.074.381.28.248.42.567.42.957 0 .391-.14.713-.42.967-.273.247-.631.371-1.074.371Zm3.974 4.795c0-.963.398-1.748 1.192-2.353.794-.612 1.823-.918 3.086-.918 1.269 0 2.282.27 3.037.81.762.534 1.185 1.286 1.269 2.256h-2.275a1.395 1.395 0 0 0-.664-.898c-.345-.222-.798-.332-1.357-.332-.56 0-1.023.12-1.387.361-.365.241-.547.553-.547.937 0 .3.127.547.381.743.26.195.661.354 1.201.478l1.885.43c1.028.234 1.784.582 2.265 1.045.482.462.723 1.084.723 1.865 0 1.022-.423 1.849-1.269 2.48-.847.625-1.941.938-3.282.938-1.334 0-2.402-.274-3.203-.82-.794-.547-1.237-1.306-1.328-2.276h2.393c.117.404.361.716.732.938.378.214.866.322 1.465.322.612 0 1.11-.121 1.494-.361.384-.248.576-.57.576-.967 0-.593-.491-.996-1.474-1.211l-1.895-.44c-1.029-.234-1.79-.595-2.285-1.084-.488-.494-.733-1.142-.733-1.943Zm11.29 7.627v-10.684h2.412V344h-2.412Zm1.201-12.422c-.436 0-.795-.124-1.074-.371a1.248 1.248 0 0 1-.42-.967c0-.39.14-.709.42-.957.279-.254.638-.381 1.074-.381.442 0 .8.127 1.074.381.28.248.42.567.42.957 0 .391-.14.713-.42.967-.274.247-.632.371-1.074.371Zm4.99-.879h2.412v2.686h2.285v1.933h-2.285v5.244c0 .528.117.915.352 1.163.234.24.605.361 1.113.361.221 0 .495-.016.82-.049v1.895a6.676 6.676 0 0 1-1.269.117c-1.224 0-2.103-.225-2.637-.674-.527-.449-.791-1.191-.791-2.227v-5.83h-1.69v-1.933h1.69v-2.686Z"/>
  </g>
  <defs>
    <radialGradient id="b" cx="0" cy="0" r="1" gradientTransform="matrix(0 287.715 -352.204 0 355.997 291.5)" gradientUnits="userSpaceOnUse">
      <stop stop-color="#FD4242"/>
      <stop offset=".203" stop-color="#F4A734"/>
      <stop offset=".401" stop-color="#FEF071"/>
      <stop offset=".615" stop-color="#85E99B"/>
      <stop offset=".802" stop-color="#564BDD"/>
      <stop offset="1" stop-color="#AA15B7"/>
    </radialGradient>
    <radialGradient id="c" cx="0" cy="0" r="1" gradientTransform="matrix(0 192.524 -235.69 0 355.999 291.491)" gradientUnits="userSpaceOnUse">
      <stop stop-color="#FD4242"/>
      <stop offset=".203" stop-color="#F4A734"/>
      <stop offset=".401" stop-color="#FEF071"/>
      <stop offset=".615" stop-color="#85E99B"/>
      <stop offset=".802" stop-color="#564BDD"/>
      <stop offset="1" stop-color="#AA15B7"/>
    </radialGradient>
    <radialGradient id="d" cx="0" cy="0" r="1" gradientTransform="matrix(0 123.061 -150.662 0 356 291.491)" gradientUnits="userSpaceOnUse">
      <stop stop-color="#FD4242"/>
      <stop offset=".203" stop-color="#F4A734"/>
      <stop offset=".401" stop-color="#FEF071"/>
      <stop offset=".615" stop-color="#85E99B"/>
      <stop offset=".802" stop-color="#564BDD"/>
      <stop offset="1" stop-color="#AA15B7"/>
    </radialGradient>
    <radialGradient id="e" cx="0" cy="0" r="1" gradientTransform="scale(109.283 80.9789) rotate(90 -.14 3.435)" gradientUnits="userSpaceOnUse">
      <stop stop-color="#FD4242"/>
      <stop offset=".203" stop-color="#F4A734"/>
      <stop offset=".401" stop-color="#FEF071"/>
      <stop offset=".615" stop-color="#85E99B"/>
      <stop offset=".802" stop-color="#564BDD"/>
      <stop offset="1" stop-color="#AA15B7"/>
    </radialGradient>
    <radialGradient id="f" cx="0" cy="0" r="1" gradientTransform="matrix(0 47.2941 -63.8452 0 363.14 289.406)" gradientUnits="userSpaceOnUse">
      <stop stop-color="#FD4242"/>
      <stop offset=".203" stop-color="#F4A734"/>
      <stop offset=".401" stop-color="#FEF071"/>
      <stop offset=".615" stop-color="#85E99B"/>
      <stop offset=".802" stop-color="#564BDD"/>
      <stop offset="1" stop-color="#AA15B7"/>
    </radialGradient>
    <clipPath id="a">
      <path fill="#fff" d="M0 0h712v583H0z"/>
    </clipPath>
  </defs>
</svg>
